<?xml version="1.0" standalone="no"?>
<!DOCTYPE svg PUBLIC "-//W3C//DTD SVG 20010904//EN"
 "http://www.w3.org/TR/2001/REC-SVG-20010904/DTD/svg10.dtd">
<svg version="1.0" xmlns="http://www.w3.org/2000/svg"
 width="23px" height="23px" viewBox="0 0 243.000000 240.000000"
 preserveAspectRatio="xMidYMid meet">

<g transform="translate(0.000000,220.000000) scale(0.100000,-0.100000)"
fill="white" stroke="none">
<path d="M0 2389 l0 -91 33 48 c34 51 108 108 161 123 23 7 3 9 -81 10 l-113
1 0 -91z"/>
<path d="M2253 2466 c92 -33 157 -99 188 -189 l18 -52 1 128 0 127 -122 0
c-116 -1 -121 -2 -85 -14z"/>
<path d="M561 2264 c-30 -8 -77 -27 -105 -41 -65 -35 -184 -153 -218 -219 -58
-109 -58 -101 -58 -911 0 -711 1 -745 19 -781 24 -47 56 -77 103 -97 33 -13
146 -15 918 -15 772 0 885 2 918 15 49 21 81 52 103 100 18 38 19 82 19 780 0
803 1 786 -56 904 -39 79 -151 189 -234 229 -84 40 -137 51 -230 52 -199 0
-373 -108 -461 -284 -22 -45 -43 -101 -46 -124 -7 -54 -19 -54 -27 2 -12 78
-70 183 -144 255 -104 104 -219 151 -367 150 -44 0 -104 -7 -134 -15z m154
-1039 c23 -22 25 -31 25 -120 l0 -96 -32 3 -33 3 -3 83 c-2 60 -6 82 -15 79
-8 -2 -13 -33 -15 -86 l-3 -82 -32 3 -32 3 0 93 c0 90 1 95 28 118 37 31 81
31 112 -1z m823 -12 c3 -26 -1 -33 -14 -33 -13 0 -15 -6 -9 -27 19 -77 18 -91
-9 -118 -20 -20 -34 -25 -59 -23 -27 2 -33 8 -35 31 -3 22 1 30 18 34 17 4 20
10 15 27 -20 60 -17 94 9 121 18 18 35 25 54 23 22 -2 28 -8 30 -35z m-1088
-53 c0 -47 4 -80 10 -80 6 0 10 33 10 80 l0 80 35 0 35 0 0 -92 c0 -80 -3 -95
-22 -115 -28 -30 -89 -32 -118 -3 -17 17 -20 33 -20 115 l0 95 35 0 35 0 0
-80z m395 -35 l0 -110 -32 -3 -33 -3 0 116 0 116 33 -3 32 -3 0 -110z m101 90
c3 -14 10 -25 14 -25 4 0 11 11 14 25 5 21 12 25 45 25 l39 0 -45 -107 c-24
-60 -48 -112 -52 -116 -6 -6 -56 99 -98 210 -4 9 6 13 36 13 35 0 41 -3 47
-25z m244 -4 c0 -24 -5 -30 -25 -33 -14 -2 -26 -7 -26 -13 0 -5 12 -11 26 -13
19 -3 25 -9 25 -28 0 -20 -5 -24 -30 -24 -16 0 -30 -4 -30 -10 0 -5 14 -10 30
-10 28 0 30 -3 30 -36 l0 -37 -47 6 c-66 7 -83 31 -83 116 0 90 15 111 81 111
48 0 49 -1 49 -29z m178 13 c25 -17 30 -71 10 -103 -9 -14 -8 -27 5 -60 22
-53 22 -51 -16 -51 -28 0 -36 5 -50 35 -22 45 -22 101 -1 109 18 7 10 26 -12
26 -11 0 -14 -18 -14 -85 l0 -85 -35 0 -35 0 0 115 0 115 63 0 c40 0 70 -5 85
-16z m262 -100 l0 -115 -32 3 -33 3 -3 113 -3 112 36 0 35 0 0 -116z m271 94
l11 -21 17 22 c13 17 25 22 49 19 l32 -3 -27 -40 c-22 -31 -29 -55 -33 -110
l-5 -70 -32 -3 -33 -3 0 66 c0 51 -5 73 -22 100 -24 37 -38 44 -38 21 0 -8
-10 -16 -22 -18 -21 -3 -23 -9 -26 -86 l-3 -83 -32 3 -32 3 -3 83 c-3 80 -3
82 -27 82 -21 0 -25 5 -25 30 l0 30 120 0 c112 0 120 -1 131 -22z m-1419 -289
c14 -8 23 -8 31 0 16 16 68 13 89 -6 15 -13 18 -32 18 -115 l0 -98 -35 0 -35
0 0 80 c0 47 -4 80 -10 80 -6 0 -10 -33 -10 -80 l0 -80 -35 0 -35 0 -2 83 -2
82 -3 -82 -4 -83 -34 0 -35 0 0 97 c0 76 4 100 17 115 18 20 54 23 85 7z m308
-9 c17 -17 20 -33 20 -115 l0 -95 -35 0 c-33 0 -35 2 -35 31 0 27 -2 30 -15
19 -8 -7 -15 -21 -15 -31 0 -15 -7 -19 -32 -19 l-33 0 5 100 c4 84 8 101 25
114 29 22 91 20 115 -4z m122 -32 l3 -52 28 52 c26 47 31 52 63 52 19 0 34 -2
34 -4 0 -2 -11 -24 -25 -47 -31 -55 -31 -68 0 -129 l25 -50 -38 0 c-38 0 -40
2 -65 58 l-25 57 -1 -57 -1 -58 -35 0 -35 0 0 115 0 115 34 0 35 0 3 -52z
m258 17 c0 -30 -3 -35 -24 -35 -35 0 -42 -18 -9 -22 22 -2 28 -8 28 -28 0 -20
-6 -26 -27 -28 -38 -4 -36 -22 2 -22 27 0 30 -3 30 -30 0 -29 -1 -30 -47 -30
-71 0 -83 17 -83 111 0 72 2 79 26 98 17 13 41 21 65 21 38 0 39 -1 39 -35z
m108 -52 c3 -78 12 -103 26 -67 3 9 6 47 6 85 l0 69 30 0 30 0 0 -99 c0 -96
-1 -100 -26 -120 -34 -27 -84 -27 -112 -1 -20 19 -22 31 -22 121 l0 100 33 -3
32 -3 3 -82z m232 52 c0 -24 -5 -35 -15 -35 -19 0 -19 -8 0 -53 18 -43 8 -78
-29 -102 -39 -26 -70 -16 -74 21 -2 25 1 33 17 37 20 5 20 7 5 42 -26 63 7
125 66 125 28 0 30 -3 30 -35z m-957 -287 c17 -9 57 -65 57 -80 0 -5 -18 -8
-40 -8 -22 0 -40 4 -40 10 0 5 -9 14 -21 20 -47 26 -92 -46 -53 -84 23 -23 51
-20 70 9 12 19 25 25 51 25 33 0 35 -1 28 -27 -9 -40 -55 -83 -97 -89 -46 -8
-104 19 -123 57 -58 112 55 225 168 167z m384 12 c41 -15 53 -47 53 -145 l0
-85 -35 0 -34 0 -3 80 c-3 77 -20 114 -26 58 -2 -16 1 -28 7 -28 14 0 14 -47
1 -55 -5 -3 -10 -17 -10 -31 0 -21 -5 -24 -35 -24 l-35 0 0 93 c1 101 9 123
57 137 15 4 28 9 29 9 1 1 15 -4 31 -9z m560 0 c41 -15 53 -47 53 -145 l0 -85
-35 0 -35 0 0 80 c0 64 -3 80 -15 80 -12 0 -15 -16 -15 -80 l0 -80 -35 0 -35
0 0 89 c0 96 17 135 63 144 12 2 22 5 23 6 1 0 15 -4 31 -9z m223 -35 c0 -29
-3 -32 -27 -32 -28 0 -53 -26 -53 -54 0 -21 26 -49 46 -49 11 0 12 4 3 19 -18
28 -4 51 31 51 24 0 33 -6 40 -26 15 -40 12 -53 -20 -86 -27 -26 -36 -30 -67
-25 -22 4 -49 19 -68 37 -26 26 -30 38 -30 84 0 62 27 101 79 114 49 13 66 4
66 -33z m-1020 -4 c0 -22 5 -43 10 -46 6 -3 10 -17 10 -30 0 -13 -4 -27 -10
-30 -5 -3 -10 -24 -10 -46 0 -38 -1 -39 -35 -39 l-35 0 0 115 0 115 35 0 c34
0 35 -1 35 -39z m100 -76 l0 -115 -35 0 -35 0 0 115 0 115 35 0 35 0 0 -115z
m280 36 c0 -61 3 -80 15 -85 9 -3 15 -18 15 -36 0 -27 -3 -30 -29 -30 -52 0
-71 38 -71 141 l0 89 35 0 35 0 0 -79z m110 0 c0 -61 3 -80 15 -85 9 -3 15
-18 15 -36 0 -27 -3 -30 -30 -30 -56 0 -70 27 -70 135 l0 95 35 0 35 0 0 -79z
m170 44 c0 -32 -2 -35 -30 -35 -38 0 -40 -18 -2 -22 19 -2 28 -9 30 -25 3 -20
-1 -23 -28 -23 -39 0 -36 -24 3 -28 22 -3 27 -8 27 -33 0 -28 -2 -29 -43 -29
-23 0 -53 7 -65 16 -20 13 -22 24 -22 95 0 98 15 119 85 119 45 0 45 0 45 -35z
m560 0 c0 -32 -2 -35 -30 -35 -16 0 -30 -4 -30 -10 0 -5 11 -10 25 -10 20 0
25 -5 25 -24 0 -19 -6 -25 -25 -28 -37 -4 -35 -22 3 -26 28 -3 32 -7 32 -33 0
-28 -1 -29 -49 -29 -42 0 -53 4 -71 28 -19 23 -21 37 -18 96 5 83 25 106 94
106 44 0 44 0 44 -35z"/>
<path d="M713 854 c-3 -8 2 -23 11 -32 15 -15 16 -14 16 16 0 33 -16 43 -27
16z"/>
<path d="M2446 217 c-9 -46 -57 -119 -101 -153 -20 -15 -60 -36 -88 -45 l-52
-18 128 -1 127 0 0 125 c0 69 -2 125 -4 125 -2 0 -7 -15 -10 -33z"/>
<path d="M0 92 l0 -92 118 0 117 1 -52 18 c-67 23 -118 62 -154 119 l-29 46 0
-92z"/>
</g>
</svg>
